<?xml version="1.0" standalone="no"?>
<!DOCTYPE svg PUBLIC "-//W3C//DTD SVG 20010904//EN"
 "http://www.w3.org/TR/2001/REC-SVG-20010904/DTD/svg10.dtd">
<svg version="1.0" xmlns="http://www.w3.org/2000/svg"
 width="500.000000pt" height="500.000000pt" viewBox="0 0 500.000000 500.000000"
 preserveAspectRatio="xMidYMid meet">
<metadata>
Created by potrace 1.14, written by Peter Selinger 2001-2017
</metadata>
<g transform="translate(0.000000,500.000000) scale(0.100000,-0.100000)"
fill="#000000" stroke="none">
<path d="M2957 4459 c-9 -6 -29 -21 -43 -34 l-26 -24 -2 -198 -1 -198 30 -33
30 -32 180 -4 c234 -6 268 -13 309 -69 20 -28 21 -38 18 -310 -8 -653 -8 -672
23 -770 36 -119 112 -209 220 -261 30 -15 55 -29 55 -30 0 -2 -28 -17 -62 -35
-72 -37 -101 -60 -143 -116 -99 -130 -110 -237 -90 -857 9 -276 4 -335 -31
-375 -13 -15 -27 -28 -31 -28 -5 -1 -17 -4 -28 -8 -47 -15 -89 -19 -250 -20
l-170 -2 -27 -29 c-16 -16 -28 -34 -29 -40 -1 -6 -2 -96 -2 -201 l-2 -189 33
-34 34 -33 256 2 c157 0 262 5 270 11 8 7 12 7 12 -1 0 -7 5 -9 10 -6 11 7 31
11 105 19 68 8 165 33 220 55 17 7 35 14 40 15 6 1 38 18 72 39 121 74 213
209 239 352 3 17 9 48 14 70 9 40 6 446 -3 462 -3 4 -8 44 -12 88 -3 44 -9
100 -11 125 -12 114 -8 235 10 273 28 58 129 127 207 141 13 3 24 5 24 6 0 1
7 3 15 5 79 17 152 26 255 29 l70 3 3 276 c1 153 -1 277 -5 278 -5 1 -28 3
-53 5 -24 2 -50 6 -57 8 -7 3 -13 1 -13 -5 0 -6 -5 -7 -11 -3 -6 3 -27 8 -47
10 -21 2 -53 6 -72 8 -19 2 -55 10 -80 17 -25 7 -50 13 -56 15 -7 1 -35 13
-63 28 -98 49 -134 105 -134 211 -1 68 8 203 19 295 21 186 27 507 10 585 -24
106 -51 174 -96 240 -35 51 -103 118 -138 136 -15 8 -29 16 -32 19 -5 5 -37
20 -82 39 -40 17 -113 39 -148 45 -19 3 -48 8 -65 11 -53 10 -148 18 -222 19
-40 1 -73 4 -73 7 0 3 -7 6 -15 6 -8 0 -12 -3 -10 -7 5 -8 -72 -6 -81 3 -4 3
-14 3 -23 -1 -14 -6 -77 -8 -91 -2 -14 5 -49 6 -45 0 5 -8 -67 -6 -80 2 -6 4
-18 2 -28 -3z"/>
<path d="M1450 4447 c-355 -45 -536 -176 -611 -442 -20 -70 -23 -104 -24 -270
0 -167 4 -255 20 -385 5 -40 16 -210 19 -285 1 -27 -4 -66 -11 -85 -37 -94
-169 -166 -339 -185 -27 -3 -65 -7 -84 -10 -19 -2 -63 -4 -97 -4 l-62 -1 0
-280 0 -280 37 -1 c252 -5 429 -54 509 -141 31 -33 50 -94 47 -153 -6 -144
-20 -319 -30 -380 -3 -16 -7 -115 -9 -220 -5 -246 10 -337 79 -473 78 -154
287 -272 526 -297 36 -3 83 -8 105 -11 22 -3 152 -5 289 -6 l248 0 31 30 30
30 0 200 1 199 -30 29 c-29 29 -31 29 -157 30 -243 2 -328 19 -364 72 -19 29
-21 111 -12 697 2 127 1 251 -3 276 -26 179 -103 297 -239 367 l-60 31 43 22
c118 59 190 139 227 252 32 100 35 139 32 402 -9 593 -8 657 13 692 35 58 95
71 349 74 l148 2 27 31 27 31 -1 198 -1 198 -31 30 -31 30 -273 -2 c-150 -2
-302 -7 -338 -12z"/>
</g>
</svg>
